<?xml version="1.0" encoding="UTF-8" standalone="no"?>
<svg
   id="0fa3c922-2890-4e83-a6a7-5bb6074ca9fa"
   data-name="Layer 1"
   width="794.333"
   height="592.022"
   viewBox="0 0 1059.13 789.41"
   version="1.1"
   sodipodi:docname="homepage_anon_2.svg"
   inkscape:version="1.1 (c68e22c387, 2021-05-23)"
   xmlns:inkscape="http://www.inkscape.org/namespaces/inkscape"
   xmlns:sodipodi="http://sodipodi.sourceforge.net/DTD/sodipodi-0.dtd"
   xmlns="http://www.w3.org/2000/svg"
   xmlns:svg="http://www.w3.org/2000/svg">
  <sodipodi:namedview
     id="namedview299"
     pagecolor="#505050"
     bordercolor="#eeeeee"
     borderopacity="1"
     inkscape:pageshadow="0"
     inkscape:pageopacity="0"
     inkscape:pagecheckerboard="0"
     showgrid="false"
     inkscape:zoom="1.024816"
     inkscape:cx="365.43144"
     inkscape:cy="287.36865"
     inkscape:window-width="1920"
     inkscape:window-height="1017"
     inkscape:window-x="1912"
     inkscape:window-y="-5"
     inkscape:window-maximized="1"
     inkscape:current-layer="0fa3c922-2890-4e83-a6a7-5bb6074ca9fa"
     units="mm" />
  <defs
     id="defs162">
    <linearGradient
       id="5f966abe-ca91-49e1-9c3c-162f077ee9a1"
       x1="602.85"
       y1="654.57"
       x2="602.85"
       y2="287.56"
       gradientUnits="userSpaceOnUse"
       gradientTransform="matrix(1.0000599,0,0,1.0000599,-69.468956,-55.016558)">
      <stop
         offset="0"
         stop-color="gray"
         stop-opacity="0.25"
         id="stop155" />
      <stop
         offset="0.54"
         stop-color="gray"
         stop-opacity="0.12"
         id="stop157" />
      <stop
         offset="1"
         stop-color="gray"
         stop-opacity="0.1"
         id="stop159" />
    </linearGradient>
  </defs>
  <title
     id="title164">studying</title>
  <path
     d="m 1042.8077,351.81783 c -0.19,1.12008 -0.38,2.24014 -0.59,3.36021 -6.7805,38.14228 -17.8511,74.91448 -34.3121,108.67651 q -0.81,1.6801 -1.6501,3.3602 a 310.58862,310.58862 0 0 1 -38.66228,59.62358 c -8.2005,9.89059 -17.141,19.28115 -27.7717,26.06156 -14.9009,9.50057 -32.3219,13.36079 -49.4429,16.52099 -17.7911,3.29019 -35.81218,6.00035 -53.79327,9.00054 q -9.56056,1.56009 -19.00114,3.27019 c -17.37104,3.14019 -34.61208,6.77041 -51.44309,11.58069 -20.81124,6.00037 -41.00245,13.73083 -60.00359,24.68149 q -2.28013,1.30007 -4.51027,2.67015 c -1.49009,0.90007 -3.00018,1.82012 -4.45026,2.76016 -1.45009,0.94007 -2.91017,1.87012 -4.35027,2.82018 l -2.22013,1.50009 c -0.73004,0.48003 -1.45008,1.00006 -2.17013,1.48009 -2.14012,1.46008 -4.25026,3.00018 -6.36038,4.48027 l -0.0801,0.06 c -1.39008,1.00007 -2.77016,2.00013 -4.15024,3.00019 -7.79047,5.77035 -15.41093,11.8107 -23.00138,17.87107 l -4.79028,3.83023 q -3.71023,2.94018 -7.42045,5.87035 c -1.45009,1.15007 -2.92017,2.29014 -4.38027,3.4302 -1.06006,0.83005 -2.11012,1.66011 -3.19019,2.48016 -5.41031,4.17024 -10.89065,8.25048 -16.48099,12.15072 -1.33007,0.93006 -2.68015,1.86011 -4.00023,2.77017 A 210.90265,210.90265 0 0 1 579.03983,704.709 l -0.16001,0.0701 a 141.00845,141.00845 0 0 1 -18.88113,6.5104 c -3.69023,1.00005 -7.38045,1.7901 -11.12068,2.41014 a 98.28589,98.28589 0 0 1 -30.1518,0.52003 c -19.69118,-2.79017 -38.14228,-12.00072 -57.78346,-15.08091 -40.52243,-6.29037 -79.87479,14.00084 -118.00708,29.9318 q -14.00083,5.86036 -28.31168,11.00066 -9.48058,3.4202 -19.05116,6.51039 a 599.81595,599.81595 0 0 1 -119.53716,25.57154 c -16.58099,1.8101 -33.87203,2.67015 -50.75304,1.37008 a 171.43027,171.43027 0 0 1 -19.00114,-2.47016 C 84.910206,767.05284 64.959016,758.56233 48.888046,743.05139 35.537246,730.36064 26.116676,713.76964 18.936246,696.4586 q -4.33025,-10.43062 -7.63046,-21.34127 A 238.01426,238.01426 0 0 1 3.5353359,640.28524 c -0.39003,-2.66017 -0.74005,-5.33032 -1.00006,-8.00048 q -0.78006,-6.87042 -1.16008,-13.80082 a 239.01433,239.01433 0 0 1 7.11043,-73.00439 c 6.8104101,-26.39158 18.1710901,-51.6631 23.1713901,-78.30468 0.21001,-1.12008 0.40002,-2.24015 0.59004,-3.36021 q 1.00005,-6.00035 1.52008,-12.22073 c 2.52015,-32.58196 -7.23043,-64.47386 -14.93088,-96.41578 -0.27003,-1.12007 -0.54005,-2.24013 -0.80006,-3.3602 q -1.25007,-5.31032 -2.37014,-10.63063 c -7.1304301,-33.78203 -9.0805401,-69.9342 -2.75016,-103.64622 0.20001,-1.12007 0.43002,-2.25013 0.66004,-3.3602 4.27025,-20.88126 11.8107,-40.74245 23.36139,-58.43351 11.85072,-18.16108 27.41164,-33.27198 44.00264,-46.55278 q 12.150732,-9.7006 25.131514,-18.1511 9.33056,-6.06037 19.00114,-11.470687 c 52.09312,-29.00173 111.52669,-43.17259 170.2902,-40.0024 q 4.67029,0.24001 9.32056,0.64004 4.8803,0.42002 9.73058,1.00007 c 37.83228,4.37025 74.64447,15.2009 111.23668,27.05162 12.26073,4.00023 24.49147,8.00047 36.7222,12.000707 q 8.16049,2.66016 16.31098,5.25031 c 26.65158,8.41051 53.74322,16.00096 81.08484,21.72131 q 9.51057,2.00013 19.00115,3.65022 a 449.10692,449.10692 0 0 0 66.59399,6.86042 q 13.00077,0.32002 26.00156,-0.27002 6.5704,-0.30002 13.15078,-0.88005 c 45.31273,-3.88024 89.00534,-16.89102 132.87797,-29.11175 6.34038,-1.77012 12.69077,-3.53022 19.00115,-5.23032 8.34049,-2.24013 16.69099,-4.410267 25.07149,-6.410387 52.18317,-12.53074 98.68597,-5.33031 147.19885,20.511237 11.0006,5.87035 22.0013,12.95078 28.8017,23.91144 6.8004,10.96065 8.4505,24.53147 9.7106,37.59225 1.7801,18.58111 3.0002,37.42225 3.3902,56.34338 0,1.12007 0,2.24013 0.07,3.3602 0.8801,38.31229 -1.4501,76.9146 -7.8304,114.25685 z"
     fill="#6c63ff"
     opacity="0.1"
     id="path166"
     style="stroke-width:1.00006" />
  <path
     d="m 696.69697,463.85455 h -3.41021 v 1.49009 1.87011 h 3.86024 z m -38.65231,0 a 0.22001318,0.22001318 0 0 0 0,0.0801 l -0.30002,2.78016 v 0.25001 0.25002 h 29.60177 v -0.20001 l 2.11012,-3.16019 z m -79.15475,0 V 355.17804 h 34.00203 c -0.36001,-0.30002 -0.73003,-0.60004 -1.11007,-0.88005 l -0.50001,-0.38004 c -0.21003,-0.17001 -0.42004,-0.33002 -0.64005,-0.48001 -0.22002,-0.15001 -0.74005,-0.53005 -1.13007,-0.79005 -0.39002,-0.26003 -0.63004,-0.43004 -1.00006,-0.64005 l -0.23001,-0.15001 h -0.05 -29.34176 v -5.95035 l -0.79006,0.38003 -0.84005,0.47002 h -0.06 l -0.18001,0.11002 -0.52003,0.34002 c -0.18001,0.11003 -0.36002,0.22001 -0.53003,0.34002 -0.52003,0.35002 -1.00006,0.73004 -1.55009,1.12008 l -0.50004,0.40002 c -0.34002,0.26 -0.66004,0.53003 -1.00006,0.80005 -1.33008,1.09006 -2.64016,2.23013 -4.00024,3.28019 -0.34002,0.27001 -0.68004,0.53003 -1.00006,0.78004 a 25.811547,25.811547 0 0 1 -2.26014,1.48009 10.740644,10.740644 0 0 1 -1.00006,0.55003 l -0.56003,0.26002 -0.51003,0.22001 v 0 a 21.241272,21.241272 0 0 1 -3.72022,1.18007 V 463.85456 H 508.8657 c 0,0.12006 0.0701,0.23001 0.1,0.35002 0.28001,1.00006 0.56003,2.00013 0.83005,3.00019 h 50.08299 v 116.49698 h 0.78006 l 0.89005,0.06 1.62009,0.12006 2.62016,0.26002 1.18007,0.13999 1.30007,0.16001 h 0.19003 c 0.75003,0.1 1.51007,0.22003 2.28013,0.34003 l 0.49003,0.0801 1.10006,0.18001 1.5801,0.28002 v 0 l 3.79022,-0.20002 v 0 l 0.52003,0.11002 c 0.21001,0 0.42004,0.0799 0.64005,0.12994 V 467.21485 h 78.81471 v -0.25002 -0.25001 l 0.30002,-2.78016 a 0.22001318,0.22001318 0 0 1 0,-0.0801 z m 117.80706,0 h -3.41021 v 1.49009 1.87011 h 3.86024 z m -40.78245,0 -0.34002,3.3602 h 32.93198 l 2.24013,-3.3602 z m -77.00461,0 V 355.17804 h 34.00203 c -0.36002,-0.30002 -0.73004,-0.60004 -1.11005,-0.88005 l -0.50004,-0.38004 c -0.21002,-0.17001 -0.42003,-0.33002 -0.64004,-0.48001 -0.22001,-0.15001 -0.74004,-0.53005 -1.13007,-0.79005 -0.39002,-0.26003 -0.63003,-0.43004 -1.00006,-0.64005 l -0.23001,-0.15001 h -0.07 -29.34177 v -5.95035 l -0.79005,0.38003 -0.84005,0.47002 h -0.06 l -0.18001,0.11002 -0.52003,0.34002 c -0.18001,0.11003 -0.36002,0.22001 -0.53003,0.34002 -0.52003,0.35002 -1.00006,0.73004 -1.55009,1.12008 l -0.50003,0.40002 c -0.34002,0.26 -0.66004,0.53003 -1.00006,0.80005 -1.33008,1.09006 -2.64017,2.23013 -4.00025,3.28019 -0.34002,0.27001 -0.68004,0.53003 -1.00006,0.78004 a 25.811547,25.811547 0 0 1 -2.26013,1.48009 10.740644,10.740644 0 0 1 -1.00006,0.55003 l -0.56003,0.26002 -0.51003,0.22001 v 0 a 21.241272,21.241272 0 0 1 -3.72023,1.18007 v 106.23637 h -51.00305 c 0,0.12006 0.07,0.23001 0.1,0.35002 0.28001,1.00006 0.57003,2.00013 0.84005,3.00019 h 50.073 v 116.48698 l 0.78005,0.05 0.89005,0.06 1.62009,0.12005 2.62017,0.26003 1.18007,0.14001 1.30007,0.16001 h 0.19002 c 0.75004,0.1 1.51008,0.22001 2.28013,0.34002 l 0.49003,0.0799 1.10006,0.18001 1.58011,0.28002 v 0 l 3.79022,-0.20001 v 0 l 0.52003,0.11003 c 0.21001,0 0.42003,0.0801 0.64004,0.12994 V 467.21474 h 76.71459 l 0.36002,-3.36021 z M 836.58535,237.54099 h 214.24285 c 0,-1.12008 0,-2.24013 -0.07,-3.36021 H 836.58535 V 102.23287 c -6.36038,1.7001 -12.71076,3.4602 -19.00114,5.23031 v 126.7176 H 584.57024 l -0.59003,-0.64004 0.89005,-1.00006 v 0 l 86.6652,-95.11569 q -13.00079,0.60002 -26.00156,0.27002 l -66.64399,73.10438 v -79.9348 q -9.54057,-1.65009 -19.00114,-3.65023 v 79.9048 L 462.45293,100.24274 c -12.23074,-4.000227 -24.46147,-8.070467 -36.7222,-12.000707 l 132.43793,145.298707 -0.59003,0.64004 H 314.49406 V 61.170403 q -4.86029,-0.55003 -9.73058,-1.00005 -4.65028,-0.41003 -9.32056,-0.64004 V 234.18078 H 125.15271 V 99.572703 q -9.69058,5.400327 -19.00114,11.470697 V 234.18078 H 13.536016 c -0.23001,1.11008 -0.46002,2.24013 -0.66003,3.36021 H 106.07157 V 351.81783 H 18.036286 c 0.26001,1.12008 0.53003,2.24014 0.80006,3.36021 H 106.11157 V 463.85455 H 32.217136 c -0.19001,1.12007 -0.38002,2.24013 -0.59003,3.3602 h 74.484464 v 303.86821 a 171.43027,171.43027 0 0 0 19.00114,2.47015 V 467.21475 h 170.33021 v 279.39674 q 9.58057,-3.11018 19.05114,-6.51038 V 467.21475 h 245.35471 v 244.11464 a 141.00845,141.00845 0 0 0 18.88113,-6.5104 l 0.16001,-0.0701 V 467.21475 h 238.6343 v 114.47686 q 9.49056,-1.7101 19.00113,-3.27019 V 467.21475 h 169.68016 q 0.84,-1.6801 1.6501,-3.3602 H 836.58535 V 355.17804 h 205.64235 c 0.21,-1.12007 0.4,-2.24013 0.59,-3.36021 H 836.58535 Z m -711.42264,0 H 295.44292 V 351.81783 H 125.15271 Z m 0,226.31356 V 355.17804 H 295.44292 V 463.85455 Z M 314.50406,237.54099 H 559.84877 V 351.81783 H 314.49406 Z m 0,226.31356 V 355.17804 h 245.34471 v 108.67651 z m 503.03015,0 H 578.88991 V 355.17804 h 238.6343 z m 0,-112.00672 H 578.88991 V 240.60117 l 3.3502,-3.06018 h 235.2841 z M 658.05466,463.85455 a 0.22001318,0.22001318 0 0 0 0,0.0801 l -0.30002,2.78016 v 0.25001 0.25002 h 29.60177 v -0.20001 l 2.11012,-3.16019 z m 38.65231,0 h -3.41021 v 1.49009 1.87011 h 3.86024 z m -117.80706,0 V 355.17804 h 34.00203 c -0.36002,-0.30002 -0.73003,-0.60004 -1.11005,-0.88005 l -0.50004,-0.38004 c -0.21002,-0.17001 -0.42003,-0.33002 -0.64004,-0.48001 -0.22001,-0.15001 -0.74005,-0.53005 -1.13007,-0.79005 -0.39002,-0.26003 -0.63004,-0.43004 -1.00006,-0.64005 l -0.23001,-0.15001 h -0.05 -29.35176 v -5.95035 l -0.79006,0.38003 -0.84005,0.47002 h -0.06 l -0.18001,0.11002 -0.52003,0.34002 c -0.18001,0.11003 -0.36002,0.22001 -0.53003,0.34002 -0.52003,0.35002 -1.00006,0.73004 -1.55009,1.12008 l -0.50004,0.40002 c -0.34002,0.26 -0.66004,0.53003 -1.00006,0.80005 -1.33008,1.09006 -2.64016,2.23013 -4.00024,3.28019 -0.34002,0.27001 -0.68004,0.53003 -1.00006,0.78004 a 25.811547,25.811547 0 0 1 -2.26014,1.48009 10.740644,10.740644 0 0 1 -1.00006,0.55003 l -0.56003,0.26002 -0.51003,0.22001 v 0 a 21.241272,21.241272 0 0 1 -3.72022,1.18007 V 463.85456 H 508.8657 c 0,0.12006 0.0701,0.23001 0.1,0.35002 0.28001,1.00006 0.56003,2.00013 0.83005,3.00019 h 50.08299 v 116.49698 h 0.78006 l 0.89005,0.06 1.62009,0.12006 2.62016,0.26002 1.18007,0.13999 1.30007,0.16001 h 0.19003 c 0.75003,0.1 1.51007,0.22003 2.28013,0.34003 l 0.49003,0.0801 1.10006,0.18001 1.5801,0.28002 v 0 l 3.79022,-0.20002 v 0 l 0.52003,0.11002 c 0.21001,0 0.42004,0.0799 0.64005,0.12994 V 467.21485 h 78.81471 v -0.25002 -0.25001 l 0.30002,-2.78016 a 0.22001318,0.22001318 0 0 1 0,-0.0801 z"
     fill="#6c63ff"
     opacity="0.1"
     id="path168"
     style="stroke-width:1.00006" />
  <path
     d="m 207.02762,158.85627 h 1.5201 a 3.6402181,3.6402181 0 0 1 -1.81012,-2.93017 v 0 c 0,-2.32015 2.84018,-4.21026 6.31038,-4.21026 h 44.15265 c 3.4702,0 6.31038,1.89011 6.31038,4.21026 v 0 c 0,2.31013 -2.84018,4.21025 -6.31038,4.21025 h -1.47009 a 3.6502188,3.6502188 0 0 1 1.80011,2.93017 c 0,2.00013 -2.06012,3.64022 -4.8203,4.09025 h 12.71077 c 3.4602,0 6.30037,1.89011 6.30037,4.21025 0,2.32013 -2.84017,4.20025 -6.30037,4.20025 h -44.20265 c -3.4602,0 -6.30038,-1.89012 -6.30038,-4.20025 0,-2.00012 2.06012,-3.64022 4.82029,-4.09024 h -12.71076 c -3.46021,0 -6.30037,-1.89013 -6.30037,-4.21026 0,-2.32014 2.82016,-4.21025 6.30037,-4.21025 z"
     fill="#6c63ff"
     opacity="0.1"
     id="path170"
     style="stroke-width:1.00006" />
  <path
     d="m 685.57631,198.92867 h 1.48008 a 3.6502188,3.6502188 0 0 1 -1.8101,-2.94018 v 0 c 0,-2.31013 2.84016,-4.20024 6.31037,-4.20024 h 44.15264 c 3.47022,0 6.31039,1.89011 6.31039,4.20024 v 0 c 0,2.32014 -2.84017,4.21025 -6.31039,4.21025 h -1.47008 a 3.6602194,3.6602194 0 0 1 1.8001,2.94019 c 0,2.00011 -2.06012,3.63021 -4.82028,4.08024 h 12.71076 c 3.4602,0 6.30038,1.90012 6.30038,4.21025 0,2.31014 -2.84018,4.21025 -6.30038,4.21025 h -44.14265 c -3.4602,0 -6.30038,-1.89011 -6.30038,-4.21025 0,-2.00011 2.06013,-3.64022 4.82029,-4.08025 h -12.73075 c -3.46022,0 -6.30039,-1.90011 -6.30039,-4.21024 0,-2.31014 2.86017,-4.21026 6.30039,-4.21026 z"
     fill="#6c63ff"
     opacity="0.1"
     id="path172"
     style="stroke-width:1.00006" />
  <path
     d="m 139.29356,370.40894 h 1.48009 a 3.6602194,3.6602194 0 0 1 -1.80011,-2.94017 v 0 c 0,-2.31013 2.83017,-4.21025 6.30037,-4.21025 h 44.15265 c 3.47022,0 6.31038,1.90012 6.31038,4.21025 v 0 c 0,2.32014 -2.84016,4.21026 -6.31038,4.21026 h -1.47009 a 3.6602194,3.6602194 0 0 1 1.80011,2.94017 c 0,2.00012 -2.06012,3.63023 -4.82028,4.08024 h 12.71075 c 3.47022,0 6.30039,1.89011 6.30039,4.21026 0,2.32014 -2.83017,4.21025 -6.30039,4.21025 h -44.16264 c -3.46021,0 -6.30037,-1.90011 -6.30037,-4.21025 0,-2.00012 2.07012,-3.64021 4.82028,-4.09025 h -12.71076 c -3.46021,0 -6.30038,-1.89011 -6.30038,-4.20025 0,-2.31013 2.84017,-4.21026 6.30038,-4.21026 z"
     fill="#6c63ff"
     opacity="0.1"
     id="path174"
     style="stroke-width:1.00006" />
  <path
     d="m 649.93417,658.46622 q -3.71023,2.94017 -7.42045,5.87034 c -1.45008,1.15007 -2.92018,2.29015 -4.38027,3.43022 -1.06006,0.83003 -2.11012,1.66009 -3.19018,2.48014 -5.41033,4.17025 -10.89065,8.2505 -16.48099,12.15073 -1.33008,0.93005 -2.68016,1.86012 -4.00024,2.77017 a 210.90265,210.90265 0 0 1 -35.54213,19.58117 l -0.16001,0.0701 v -46.35282 z"
     fill="#65617d"
     id="path176"
     style="stroke-width:1.00006" />
  <path
     d="m 761.22083,476.29529 1.12007,-34.55207 c -0.67004,-0.52003 -1.35008,-1.00006 -2.00012,-1.48009 a 184.19103,184.19103 0 0 0 -1.7601,-30.81184 C 754.0604,374.89922 724.70865,374.14917 716.42815,381.2796 a 20.001198,20.001198 0 0 1 -3.57021,2.46015 c 0.75004,-4.9303 1.6801,-9.87059 2.35014,-14.75089 3.62021,-26.32158 -2.00012,-55.93335 -22.42135,-72.94437 -8.5505,-7.11043 -19.00114,-11.48069 -28.3917,-17.43105 -16.82101,-10.61063 -30.1118,-26.28157 -47.12282,-36.61219 -17.01102,-10.33062 -40.90246,-14.20084 -55.74334,-0.92005 -5.75035,5.14031 -9.46057,12.27073 -15.36093,17.23103 -11.00065,9.24055 -28.15168,9.85059 -37.75226,20.17121 v 0 c -0.48002,0.52003 -0.94005,1.05006 -1.38008,1.61009 -8.00048,10.26063 -5.81035,24.81149 -3.2602,37.54226 3.07019,15.32091 1.80012,27.60165 14.9409,32.00191 0.05,0.61004 0.09,1.22007 0.16001,1.82011 a 64.91389,64.91389 0 0 0 28.56171,46.72281 l -2.13013,0.76004 c -5.68034,2.00012 -10.79064,3.94023 -14.06083,5.27031 -12.00073,4.8903 -37.26224,11.26067 -37.26224,11.26067 0,0 -0.60004,7.20044 -0.49003,17.82107 -8.42051,9.15055 -22.47135,25.23152 -26.6016,34.76209 -6.00035,13.90084 -39.90239,53.71322 -48.93293,59.72358 -9.03054,6.01035 -18.82112,13.14078 -18.82112,13.14078 0,0 -14.30086,7.89048 -21.07127,8.64052 -4.69028,0.52003 -19.20115,-2.26013 -19.20115,-2.26013 0,0 -57.95347,-71.00426 -54.19325,-16.52099 3.76023,54.48326 50.053,56.33338 50.053,56.33338 l 46.6728,-0.75004 c 0,0 25.22151,3.3802 36.51219,-6.00037 9.64057,-8.00048 59.60357,-51.89311 75.65454,-71.8043 0.37002,0.41002 0.74003,0.81005 1.13005,1.20007 0,0 6.39039,-8.2605 7.15043,0 0.76005,8.2605 -4.15024,12.00072 -1.51008,15.0009 2.64015,3.00018 10.54064,13.52081 10.91066,17.65106 0.37001,4.13024 -10.53064,21.00126 7.90046,33.80202 0.29002,0.20001 0.60004,0.39002 0.94006,0.58003 3.2902,7.49045 13.75083,14.8209 13.75083,14.8209 l 56.45338,-0.75005 106.51638,8.2605 c 0,0 3.17019,-2.79018 7.46045,-7.35044 5.73035,5.26031 13.68083,9.77058 22.64135,7.00042 0,0 12.80078,-15.39093 13.1808,-25.53154 0,0 -8.2805,-21.41127 -12.00073,-27.79166 -3.72022,-6.38039 2.64017,-20.28121 2.64017,-20.28121 0,0 4.51026,-13.52082 7.15043,-13.52082 2.64015,0 0.75004,-9.00054 0.75004,-9.00054 a 10.940656,10.940656 0 0 1 -1.13006,-10.1406 c 2.21013,-5.69035 3.72021,-16.21098 3.72021,-16.21098 z"
     fill="url(#5f966abe-ca91-49e1-9c3c-162f077ee9a1)"
     id="path178"
     style="fill:url(#5f966abe-ca91-49e1-9c3c-162f077ee9a1);stroke-width:1.00006" />
  <path
     d="m 697.36701,468.51482 -4.00025,4.68029 v 0 l -16.16096,18.82113 -21.11127,1.28007 -33.79203,2.08012 c 0,0 -45.56273,-54.90328 -37.0022,-66.854 3.11018,-4.31026 3.62021,-10.0006 3.00017,-15.37092 -0.08,-0.74005 -0.19001,-1.48009 -0.32002,-2.21013 a 63.893829,63.893829 0 0 0 -5.32032,-16.40099 l 1.12007,-0.51003 0.72004,-0.33002 39.84239,-18.18109 9.86059,-4.50026 a 26.621596,26.621596 0 0 0 2.70016,7.78046 c 0.19001,0.38002 0.40003,0.76004 0.62004,1.12006 13.59082,22.50136 57.17343,8.2705 57.17343,8.2705 z"
     fill="#ee8e9e"
     id="path180"
     style="stroke-width:1.00006" />
  <path
     d="m 756.28053,440.42314 c -0.3,13.62082 -2.52014,19.50117 -2.52014,19.50117 l -56.39338,8.59051 -2.11014,-14.64087 -8.35049,-57.81347 7.84046,-7.84047 a 20.931254,20.931254 0 0 0 17.93109,-4.48026 c 8.21048,-7.10043 37.34224,-6.35039 41.8225,28.00168 a 190.14139,190.14139 0 0 1 1.7801,28.68171 z"
     fill="#ee8e9e"
     id="path182"
     style="stroke-width:1.00006" />
  <path
     d="m 742.92974,599.96271 c 0,0 12.69077,-15.31092 13.07079,-25.39153 l -12.70077,-21.29127 -11.20067,-12.00073 -20.92126,40.38243 c 0,0 13.82083,23.90144 31.75191,18.3011 z"
     fill="#dfe5ee"
     id="path184"
     style="stroke-width:1.00006" />
  <path
     d="m 742.92974,599.96271 c 0,0 12.69077,-15.31092 13.07079,-25.39153 l -12.70077,-21.29127 -11.20067,-12.00073 -20.92126,40.38243 c 0,0 13.82083,23.90144 31.75191,18.3011 z"
     opacity="0.1"
     id="path186"
     style="stroke-width:1.00006" />
  <path
     d="m 638.13345,667.76678 c -1.06006,0.83003 -2.11012,1.66009 -3.19018,2.48014 -5.41033,4.17025 -10.89065,8.2505 -16.48099,12.15073 -1.33008,0.93005 -2.68016,1.86012 -4.00024,2.77017 H 559.84877 314.49406 295.44292 l -94.38565,-3.38021 -75.90456,-0.64004 -19.00114,-1.00006 -94.805674,-5.0003 A 238.01426,238.01426 0 0 1 3.5354259,640.28513 c -0.39004,-2.66017 -0.74006,-5.33032 -1.00006,-8.00048 l 103.5762041,5.74034 19.00114,1.07006 170.2902,9.50058 19.05115,1.06006 245.35471,13.70082 18.88113,1.06006 h 0.16001 z"
     fill="#d48a9b"
     id="path188"
     style="stroke-width:1.00006" />
  <path
     d="m 766.08113,593.2723 c -20.81125,6.00037 -41.00246,13.73083 -60.0036,24.68149 -1.51009,0.87005 -3.00019,1.7601 -4.51026,2.67015 -1.5101,0.91007 -3.00019,1.82012 -4.45028,2.76016 -1.45008,0.94007 -2.91018,1.87012 -4.35026,2.82018 l -2.22013,1.50009 -2.17013,1.48009 c -2.14014,1.47008 -4.25026,3.00018 -6.36038,4.48027 l -0.0801,0.06 c -1.39008,1.00007 -2.77016,2.00013 -4.15024,3.00019 -7.79047,5.77035 -15.41093,11.8107 -23.00139,17.87107 q -2.40014,1.92011 -4.81028,3.83023 l -7.40044,5.87035 c -1.45009,1.15007 -2.92019,2.29014 -4.38027,3.4302 -1.06006,0.83005 -2.11013,1.66011 -3.19019,2.48016 l -56.00335,-2.67017 h -0.16001 l -18.88113,-0.88005 -245.46472,-11.63069 -19.05114,-0.91006 -170.29021,-8.09048 -19.00114,-0.91006 -102.6161441,-4.83029 c -0.39003,-2.66016 -0.74005,-5.33031 -1.00006,-8.00048 q -0.78006,-6.87042 -1.16008,-13.80082 l 104.7662841,-37.00222 19.00114,-6.73041 17.26103,-6.10037 31.4519,1.6401 72.69435,3.73023 v 0 l 48.92293,2.57015 19.05114,1.00006 12.17074,0.64004 v 0 l 2.91017,0.16001 v 0 l 102.42613,5.35032 v 0 l 1.08006,0.0701 v 0 l 45.70274,2.38015 h 0.52004 0.30002 v 0 l 4.57027,0.23 v 0 l 15.58094,0.82006 19.48116,1.00006 v 0 l 6.42039,0.34002 v 0 l 1.21007,0.07 9.08055,0.47003 v 0 l 2.59015,0.12995 v 0 l 8.67052,0.46001 v 0 l 3.45021,0.19003 h 0.11002 0.72004 v 0 l 8.11049,0.43001 12.56076,0.66005 h 0.06 l 3.90024,0.20001 h 0.42002 l 2.33014,0.12994 5.72035,0.30002 v 0 l 5.00029,0.26001 h 0.05 l 5.61034,0.29002 h 0.09 l 4.25025,0.23001 v 0 l 3.26019,0.17001 11.5707,0.61004 v 0 l 2.08012,0.11002 h 0.72005 l 1.00006,0.06 v 0 l 3.39019,0.18001 v 0 l 1.5201,0.0799 v 0 l 11.80071,0.61005 h 1.08006 l 17.42105,-0.15001 h 0.12005 l 66.23398,-0.54003 v 0 h 1.27007 1.34008 3.94024 v 0 L 747.69,593.3622 h 3.1802 z"
     fill="#efc6cd"
     id="path190"
     style="stroke-width:1.00006" />
  <path
     d="m 319.06434,594.64238 6.16037,32.77197 167.49003,-2.52015 c 0,0 12.60075,3.64022 12.32075,-6.44039 0,0 25.49151,-24.09144 154.60926,3.92025 l -49.57298,-38.93235 -135.50812,7.28044 -157.12941,-4.20024 z"
     fill="#6c63ff"
     id="path192"
     style="stroke-width:1.00006" />
  <path
     d="m 322.14452,586.80191 5.88035,35.57215 c 0,0 144.00863,-4.20026 166.64999,-0.28002 l -17.11103,-32.49195 c 0,0 -87.07521,-8.12049 -155.41931,-2.80018 z"
     fill="#ffffff"
     id="path194"
     style="stroke-width:1.00006" />
  <path
     d="m 322.14452,586.80191 5.88035,35.57215 c 0,0 144.00863,-4.20026 166.64999,-0.28002 l -17.11103,-32.49195 c 0,0 -87.07521,-8.12049 -155.41931,-2.80018 z"
     opacity="0.1"
     id="path196"
     style="stroke-width:1.00006" />
  <path
     d="m 324.29464,586.6719 5.80036,33.08199 c 0,0 142.17852,-3.90023 164.57986,-0.26001 l -16.87102,-30.21181 c 0,0 -86.02515,-7.56046 -153.5092,-2.61017 z"
     fill="#ffffff"
     id="path198"
     style="stroke-width:1.00006" />
  <path
     d="m 326.90481,587.69196 5.65033,30.94187 c 0,0 139.05834,-3.65022 161.00965,-0.24002 L 477.0638,590.12212 c 0,0 -84.14504,-7.10043 -150.15899,-2.43016 z"
     opacity="0.1"
     id="path200"
     style="stroke-width:1.00006" />
  <path
     d="m 328.02487,586.56191 5.68035,31.00185 c 0,0 139.05833,-3.65021 161.00964,-0.24001 l -16.54098,-28.3017 c 0,0 -84.13505,-7.09042 -150.14901,-2.46014 z"
     fill="#ffffff"
     id="path202"
     style="stroke-width:1.00006" />
  <path
     d="m 229.63898,502.42686 c 0,0 7.28042,9.51057 -3.35021,23.88143 -10.63064,14.37086 -19.41116,26.49159 -15.86094,35.45213 0,0 16.00096,-26.6816 29.10174,-27.00162 13.10078,-0.32002 4.48026,-16.29098 -9.89059,-32.33194 z"
     fill="#6c63ff"
     id="path204"
     style="stroke-width:1.00006" />
  <path
     d="m 229.63898,502.42686 a 11.560693,11.560693 0 0 1 1.49008,3.00019 c 12.74076,15.00089 19.53117,29.00173 7.28044,29.30175 -11.41068,0.32002 -25.0915,20.72124 -28.3717,25.88155 q 0.17001,0.58004 0.39003,1.17007 c 0,0 16.00096,-26.6816 29.10174,-27.00162 13.10078,-0.32002 4.48026,-16.31098 -9.89059,-32.35194 z"
     opacity="0.1"
     id="path206"
     style="stroke-width:1.00006" />
  <path
     d="m 243.16978,514.55758 c 0,3.34021 -0.38002,6.06037 -0.84005,6.06037 -0.46002,0 -0.84005,-2.72016 -0.84005,-6.06037 0,-3.34019 0.47003,-1.7801 0.93006,-1.7801 0.46004,0 0.75004,-1.57009 0.75004,1.7801 z"
     fill="#ffd037"
     id="path208"
     style="stroke-width:1.00006" />
  <path
     d="m 247.81007,518.54783 c -2.94019,1.61009 -5.50034,2.58015 -5.72035,2.17013 -0.22001,-0.41003 2.00013,-2.00012 4.9203,-3.64022 2.92017,-1.64011 1.7801,-0.44002 2.00012,0 0.22001,0.44003 1.7401,-0.12994 -1.20007,1.47009 z"
     fill="#ffd037"
     id="path210"
     style="stroke-width:1.00006" />
  <path
     d="m 191.20668,502.42686 c 0,0 -7.28044,9.51057 3.36019,23.88143 10.64064,14.37086 19.40116,26.49159 15.86096,35.45213 0,0 -16.05097,-26.6816 -29.11176,-27.00162 -13.06077,-0.32002 -4.48026,-16.29098 9.89061,-32.33194 z"
     fill="#6c63ff"
     id="path212"
     style="stroke-width:1.00006" />
  <path
     d="m 191.20668,502.42686 a 12.000719,12.000719 0 0 0 -1.4901,3.00019 c -12.74076,15.00089 -19.53117,29.00173 -7.28043,29.30175 11.41068,0.32002 25.10151,20.72124 28.3817,25.88155 q -0.16001,0.58004 -0.39002,1.17007 c 0,0 -16.05097,-26.6816 -29.11176,-27.00162 -13.06077,-0.32002 -4.48026,-16.31098 9.89061,-32.35194 z"
     opacity="0.1"
     id="path214"
     style="stroke-width:1.00006" />
  <path
     d="m 177.67586,514.55758 c 0,3.34021 0.38002,6.06037 0.84005,6.06037 0.46003,0 0.84005,-2.72016 0.84005,-6.06037 0,-3.34019 -0.47003,-1.7801 -0.93006,-1.7801 -0.46002,0 -0.75004,-1.57009 -0.75004,1.7801 z"
     fill="#ffd037"
     id="path216"
     style="stroke-width:1.00006" />
  <path
     d="m 173.03559,518.54783 c 2.94017,1.61009 5.51032,2.58015 5.73033,2.17013 0.22002,-0.41003 -2.00011,-2.00012 -4.9203,-3.64022 -2.92017,-1.64011 -1.7801,-0.44002 -2.0001,0 -0.22003,0.44003 -1.75012,-0.12994 1.19007,1.47009 z"
     fill="#ffd037"
     id="path218"
     style="stroke-width:1.00006" />
  <path
     d="m 249.55017,548.92964 -0.36002,3.00019 -0.51003,4.19025 -0.21002,1.7501 -0.51003,4.20026 -0.22001,1.7501 -0.52003,4.20026 -5.82035,47.72286 c -0.52003,4.26025 -7.48045,7.58045 -15.88096,7.58045 h -30.2218 c -8.40051,0 -15.35093,-3.3202 -15.87096,-7.58045 l -5.83034,-47.72286 -0.51003,-4.20026 -0.21001,-1.7501 -0.52003,-4.20026 -0.21003,-1.7501 -0.51003,-4.19025 -0.37002,-3.00019 c -0.29001,-2.41014 3.47022,-4.44026 8.2305,-4.44026 h 61.86371 c 4.75029,0 8.52051,2.03012 8.19049,4.44026 z"
     fill="#65617d"
     id="path220"
     style="stroke-width:1.00006" />
  <polygon
     points="247.72,555.79 171.16,555.79 170.65,551.59 248.23,551.59 "
     fill="#9d9cb5"
     id="polygon222"
     transform="matrix(1.0000599,0,0,1.0000599,0.97527586,0.27675342)" />
  <polygon
     points="247,561.74 171.89,561.74 171.37,557.54 247.51,557.54 "
     fill="#9d9cb5"
     id="polygon224"
     transform="matrix(1.0000599,0,0,1.0000599,0.97527586,0.27675342)" />
  <polygon
     points="246.27,567.68 172.61,567.68 172.1,563.49 246.78,563.49 "
     fill="#9d9cb5"
     id="polygon226"
     transform="matrix(1.0000599,0,0,1.0000599,0.97527586,0.27675342)" />
  <path
     d="m 341.8457,545.06942 c 0,0 -19.42117,-18.67112 -18.67112,5.60034 0.75004,24.27144 18.67112,-5.60034 18.67112,-5.60034 z"
     fill="#ee8e9e"
     id="path228"
     style="stroke-width:1.00006" />
  <path
     d="m 516.24615,502.49686 c -0.43002,1.88011 -2.52014,5.00031 -5.78035,8.91054 -16.84101,20.28121 -64.75387,62.43374 -74.14444,70.25421 -11.20068,9.34056 -36.22217,6.00036 -36.22217,6.00036 l -46.30277,0.75005 c 0,0 -45.93275,-1.87011 -49.67298,-56.00337 -3.74022,-54.13323 53.77322,16.43099 53.77322,16.43099 0,0 14.40087,2.76017 19.05114,2.24014 6.72041,-0.74004 20.91126,-8.58051 20.91126,-8.58051 0,0 9.71058,-7.10043 18.67112,-13.07079 8.96054,-5.97035 42.57254,-45.56273 48.55291,-59.38357 3.79023,-8.77051 16.00096,-23.11137 24.43146,-32.41193 4.84029,-5.35033 8.43051,-9.00054 8.43051,-9.00054 0,0 20.91125,62.28373 18.30109,73.86442 z"
     fill="#ee8e9e"
     id="path230"
     style="stroke-width:1.00006" />
  <path
     d="m 516.24615,502.49686 c -0.43002,1.88011 -2.52014,5.00031 -5.78035,8.91054 -17.00102,-17.31104 -20.55122,-51.85311 -20.95125,-73.81442 4.84029,-5.35033 8.43051,-9.00054 8.43051,-9.00054 0,0 20.91125,62.32373 18.30109,73.90442 z"
     opacity="0.1"
     id="path232"
     style="stroke-width:1.00006" />
  <path
     d="m 693.35676,473.19511 v 0 l -16.15096,18.82113 -21.11127,1.28007 -33.79203,2.08012 c 0,0 -45.56273,-54.90328 -37.0022,-66.854 3.11018,-4.31026 3.62021,-10.0006 3.00017,-15.37092 -0.08,-0.74005 -0.19001,-1.48009 -0.32002,-2.21013 a 63.893829,63.893829 0 0 0 -5.32032,-16.40099 l 1.12007,-0.51003 0.72004,-0.33002 a 71.714298,71.714298 0 0 1 3.66023,15.31092 c 0.11002,0.71005 0.21001,1.45009 0.31001,2.21013 0.35002,2.70016 0.67004,5.70035 1.00006,9.00054 2.60016,30.22181 21.61129,41.5925 30.19181,45.21271 a 87.075219,87.075219 0 0 1 8.08048,3.91023 43.112584,43.112584 0 0 0 27.10163,4.9003 c 21.18126,-2.78016 38.4523,-18.17109 38.4523,-18.17109 l 0.09,15.15091 z"
     opacity="0.1"
     id="path234"
     style="stroke-width:1.00006" />
  <path
     d="m 694.0068,590.63215 c 0,0 -138.91832,-0.38002 -157.22942,-13.07078 -18.31109,-12.69077 -7.46045,-29.50178 -7.84047,-33.61202 -0.38002,-4.11025 -8.21049,-14.56087 -10.82065,-17.56105 -2.61015,-3.00019 2.24014,-6.72041 1.49009,-14.9309 -0.75004,-8.21049 -7.09042,0 -7.09042,0 -26.15156,-26.52159 -20.55123,-93.73561 -20.55123,-93.73561 0,0 25.0015,-6.34039 37.00221,-11.21067 3.25019,-1.32009 8.3105,-3.2002 14.00085,-5.23032 l 2.11012,-0.76004 c 14.67087,-5.25032 32.11193,-11.18067 32.11193,-11.18067 0,0 3.3502,-2.37015 6.7204,4.72028 1.5401,3.2602 3.09019,8.51051 4.33026,16.90101 0.11002,0.71004 0.21001,1.45008 0.31002,2.21013 0.35002,2.70017 0.67004,5.70034 1.00006,9.00054 2.60015,30.22182 21.61129,41.5925 30.1918,45.21271 a 87.075219,87.075219 0 0 1 8.08049,3.91024 43.112584,43.112584 0 0 0 27.10162,4.90029 c 21.18128,-2.78017 38.4523,-18.17109 38.4523,-18.17109 l 0.09,15.15091 0.26001,45.52273 z"
     fill="#dfe5ee"
     id="path236"
     style="stroke-width:1.00006" />
  <path
     d="m 688.02645,531.62862 -2.24013,14.19084 c 0,0 -55.27331,13.81082 -76.92462,17.92108 -21.65129,4.11025 -68.3441,-1.12007 -71.7043,7.84047 -3.36019,8.96053 14.19086,21.29127 14.19086,21.29127 l 56.00335,-0.75004 105.68634,8.22049 c 0,0 40.33241,-35.48213 27.26163,-60.13361 -13.07078,-24.65147 -52.27313,-8.5805 -52.27313,-8.5805 z"
     fill="#ee8e9e"
     id="path238"
     style="stroke-width:1.00006" />
  <path
     d="m 574.12962,419.5919 c 0,0 -25.40151,20.91125 -20.54123,31.00185 4.8603,10.0906 20.54123,-31.00185 20.54123,-31.00185 z"
     opacity="0.1"
     id="path240"
     style="stroke-width:1.00006" />
  <path
     d="m 542.75774,457.30416 c 0,0 -25.77154,44.44266 -24.27145,47.80287 1.50008,3.36019 8.59051,15.31091 8.21049,6.35037 -0.38002,-8.96054 16.06096,-54.15324 16.06096,-54.15324 z"
     opacity="0.1"
     id="path242"
     style="stroke-width:1.00006" />
  <path
     d="m 553.21837,465.15463 c 0,0 -6.00036,27.63165 -11.95071,39.21234 -5.95036,11.58069 11.95071,-39.21234 11.95071,-39.21234 z"
     opacity="0.1"
     id="path244"
     style="stroke-width:1.00006" />
  <path
     d="m 637.57342,379.94953 a 64.603872,64.603872 0 0 1 -49.10294,33.22198 h -0.12006 A 64.493866,64.493866 0 0 1 542.88769,401.2708 c 15.0009,-5.42033 34.22206,-11.94071 34.22206,-11.94071 0,0 3.35019,-2.37015 6.7204,4.72027 l 50.42308,-23.00138 a 26.731602,26.731602 0 0 0 3.32019,8.90055 z"
     opacity="0.1"
     id="path246"
     style="stroke-width:1.00006" />
  <path
     d="m 645.4539,346.76753 a 64.313855,64.313855 0 0 1 -8.50051,32.06192 65.073901,65.073901 0 0 1 -9.63058,12.82077 64.333856,64.333856 0 0 1 -39.16234,19.36116 h -0.12994 a 63.07378,63.07378 0 0 1 -7.18043,0.41003 64.603872,64.603872 0 0 1 -64.19385,-57.32345 62.743761,62.743761 0 0 1 -0.41003,-7.29042 64.603879,64.603879 0 1 1 129.20775,0 z"
     fill="#ee8e9e"
     id="path248"
     style="stroke-width:1.00006" />
  <path
     d="m 687.28641,469.01485 6.00035,-9.00054 c 0,0 32.86197,-39.21234 65.0039,-14.19084 l -1.12006,34.36206 c 0,0 -1.5001,10.45063 -3.74023,16.00095 a 10.930655,10.930655 0 0 0 1.12006,10.09062 c 0,0 1.87011,9.00054 -0.74004,9.00054 -2.61015,0 -7.10043,13.4408 -7.10043,13.4408 0,0 -6.35037,13.82083 -2.61015,20.1712 3.74023,6.35039 11.95071,27.63166 11.95071,27.63166 0,0 -13.07078,-7.84046 -16.81101,-20.91125 0,0 -31.7419,-24.65148 -56.39338,-9.00054 z"
     opacity="0.1"
     id="path250"
     style="stroke-width:1.00006" />
  <path
     d="m 756.28053,440.42314 c -0.3,13.62082 -2.52014,19.50117 -2.52014,19.50117 l -56.39338,8.59051 -2.11014,-14.64087 c 7.38046,-7.70046 34.22207,-32.18193 61.02366,-13.45081 z"
     opacity="0.1"
     id="path252"
     style="stroke-width:1.00006" />
  <path
     d="m 687.28641,467.01474 6.00035,-9.00054 c 0,0 32.86197,-39.21235 65.0039,-14.19085 l -1.12006,34.36205 c 0,0 -1.5001,10.45064 -3.74023,16.00096 a 10.930655,10.930655 0 0 0 1.12006,10.09061 c 0,0 1.87011,9.00054 -0.74004,9.00054 -2.61015,0 -7.10043,13.44081 -7.10043,13.44081 0,0 -6.35037,13.82082 -2.61015,20.1712 3.74023,6.35039 11.95071,27.63166 11.95071,27.63166 0,0 -13.07078,-7.84047 -16.81101,-20.91125 0,0 -31.7419,-24.65148 -56.39338,-9.00054 z"
     fill="#dfe5ee"
     id="path254"
     style="stroke-width:1.00006" />
  <path
     d="m 740.30957,441.62321 c 0,0 -54.14323,33.242 -51.53308,62.39374 0,0 30.25181,-53.4332 51.53308,-62.39374 z"
     opacity="0.1"
     id="path256"
     style="stroke-width:1.00006" />
  <path
     d="m 693.34676,473.20511 0.26003,45.52273 c -10.24061,0.46003 -19.8912,-0.87005 -27.52166,-7.50045 -5.31031,-4.62027 -8.40051,-11.00066 -10.0006,-17.90108 a 63.413801,63.413801 0 0 1 -1.30008,-16.93101 0.91005454,0.91005454 0 0 1 0,-0.17001 c 0.63004,-12.57075 3.52022,-25.14151 2.00012,-37.63226 -1.52009,-12.49074 -9.09054,-25.67154 -21.45128,-28.30169 -2.44014,-0.53003 -5.1803,-0.72004 -6.92042,-2.51015 -1.92011,-2.00013 -1.8301,-5.11031 -1.62009,-7.88047 l 0.36002,-4.67029 c 0.09,-1.20007 0.13008,-2.39014 0.13008,-3.58021 a 45.832747,45.832747 0 0 0 -37.00222,-44.94269 l -0.40002,-0.0701 c -3.48022,-0.70005 -7.10043,-1.39009 -10.58064,-0.59004 -6.6204,1.53009 -10.90066,7.95048 -17.00102,11.00066 -11.70069,5.84035 -31.21187,-0.55002 -43.4626,-2.56015 -0.80005,-0.13008 -1.56009,-0.28002 -2.29014,-0.45003 a 62.743761,62.743761 0 0 1 -0.41002,-7.29044 64.603872,64.603872 0 1 1 120.70723,32.06193 c 0.19001,0.38002 0.40002,0.76004 0.62004,1.12006 13.59081,22.50136 57.17343,8.2705 57.17343,8.2705 l 2.62015,80.29481 z"
     opacity="0.1"
     id="path258"
     style="stroke-width:1.00006" />
  <path
     d="m 564.64905,355.93808 c 6.06037,-3.06019 10.34062,-9.48056 17.00102,-11.00065 3.47022,-0.80005 7.09043,-0.11003 10.59064,0.58003 l 0.40002,0.0799 a 45.872749,45.872749 0 0 1 36.83222,48.53292 l -0.36004,4.67027 c -0.22001,2.76017 -0.31001,5.89036 1.6301,7.87048 1.73011,1.7901 4.47027,2.00011 6.91042,2.50014 12.36073,2.64017 19.9312,15.75095 21.45129,28.3117 1.52009,12.56076 -1.4201,25.17151 -2.00013,37.79226 -0.58003,12.62076 1.7401,26.55159 11.28068,34.84209 15.0009,13.00079 37.80227,5.60034 57.65346,4.41027 -8.78053,0 -15.36093,-9.06054 -15.84096,-17.82107 -0.48002,-8.76052 3.42021,-17.10102 7.15043,-25.0015 3.73022,-7.90047 7.47045,-16.40098 6.6404,-25.14151 -1.14006,-12.00071 -10.60063,-21.61129 -14.22085,-33.16198 -4.22025,-13.44081 -0.15001,-27.87168 1.7601,-41.84251 3.59022,-26.16157 -2.00012,-55.61333 -22.25133,-72.52434 -8.48051,-7.07043 -18.85113,-11.42069 -28.17168,-17.34104 -16.70101,-10.59064 -29.87179,-26.12157 -46.7528,-36.42219 -16.88102,-10.30061 -40.58244,-14.12085 -55.31333,-0.92005 -5.70033,5.1103 -9.38056,12.20073 -15.2409,17.13103 -11.4507,9.65057 -29.65179,9.83059 -38.83234,21.67129 -7.90046,10.19061 -5.76034,24.66148 -3.23019,37.31224 3.37021,16.87101 1.47009,30.0018 19.50117,33.00198 12.20074,1.93011 31.7019,8.3205 43.4126,2.47014 z"
     fill="#603556"
     id="path260"
     style="stroke-width:1.00006" />
  <path
     d="m 713.21796,506.46711 c -14.45087,1.7701 -28.77172,2.68015 -39.29236,-6.44039 -9.54057,-8.2905 -11.89071,-22.21134 -11.28067,-34.84209 0.61003,-12.63075 3.5302,-25.25152 2.00011,-37.80226 -1.53009,-12.55075 -9.09054,-25.66154 -21.45128,-28.3017 -2.44014,-0.52003 -5.17031,-0.71004 -6.91041,-2.50016 -1.93012,-2.00011 -1.85011,-5.1203 -1.6301,-7.88047 l 0.36002,-4.67027 a 45.862749,45.862749 0 0 0 -36.83221,-48.52291 l -0.40002,-0.0799 c -3.5002,-0.69004 -7.12043,-1.38008 -10.59063,-0.58004 -6.6204,1.53009 -10.90065,8.00048 -17.00102,11.00066 -11.71071,5.85035 -31.20188,-0.54003 -43.47261,-2.55015 -18.00108,-2.95017 -16.12097,-16.10097 -19.50117,-33.00198 -1.89012,-9.44057 -3.56022,-19.90119 -1.00007,-28.84173 -0.48001,0.51003 -0.94004,1.00006 -1.38008,1.6101 -7.90046,10.19062 -5.76034,24.66148 -3.23019,37.31223 3.3702,16.87101 1.47009,30.00181 19.50117,33.00198 12.26074,2.00012 31.76191,8.40051 43.47261,2.55015 6.06036,-3.06018 10.34062,-9.48057 17.00102,-11.00065 3.4702,-0.80005 7.09043,-0.11002 10.59063,0.58003 l 0.40002,0.0799 a 45.872749,45.872749 0 0 1 36.83221,48.53291 l -0.36002,4.67027 c -0.22001,2.76018 -0.31002,5.89036 1.63011,7.87049 1.7301,1.7901 4.47026,2.00011 6.9104,2.50014 12.36075,2.64016 19.93119,15.75095 21.45128,28.3117 1.5201,12.56075 -1.41008,25.17151 -2.0001,37.79226 -0.59005,12.62075 1.7401,26.55159 11.28067,34.84209 15.00089,13.00079 37.80226,5.60034 57.65345,4.41026 -5.39033,0.0299 -9.92059,-3.3902 -12.75076,-8.05047 z"
     opacity="0.1"
     id="path262"
     style="stroke-width:1.00006" />
  <path
     d="m 307.35364,539.8291 61.65368,-23.00137 a 5.8703518,5.8703518 0 0 1 7.55046,3.4402 v 0 a 5.8703518,5.8703518 0 0 1 -3.4402,7.55045 l -61.6537,23.00139 -13.2208,-1.32009 z"
     fill="#5c5c8e"
     id="path264"
     style="stroke-width:1.00006" />
  <path
     d="m 374.69767,518.38782 v 0 a 5.8703518,5.8703518 0 0 1 -3.4502,7.55045 l -61.6937,23.08138 -9.92061,-1.00006 -1.43008,1.52009 13.2208,1.32009 61.65369,-23.00138 a 5.8703518,5.8703518 0 0 0 3.44021,-7.55046 v 0 a 5.8703518,5.8703518 0 0 0 -2.40015,-2.93017 6.8104082,6.8104082 0 0 1 0.58004,1.01006 z"
     fill="#ffffff"
     opacity="0.1"
     id="path266"
     style="stroke-width:1.00006" />
  <polygon
     points="306.37,539.52 310.47,550.51 299.63,549.42 297.26,549.18 300.5,545.74 "
     fill="#efc8c4"
     id="polygon268"
     transform="matrix(1.0000599,0,0,1.0000599,0.97527586,0.27675342)" />
  <path
     d="m 301.48328,546.01947 a 2.620157,2.620157 0 0 1 0.64004,0.69004 1.0000599,1.0000599 0 0 1 0,1.07007 2.1301277,2.1301277 0 0 1 -0.59003,0.43002 2.0001198,2.0001198 0 0 0 -0.88006,1.48009 l -2.38015,-0.23 z"
     fill="#727a9c"
     id="path270"
     style="stroke-width:1.00006" />
  <path
     d="m 500.93523,610.02331 c 0,0 53.40321,-11.21067 143.00858,3.00019 l -35.10211,-25.76155 -63.86383,-13.07079 -45.1827,12.00073 z"
     fill="#ffffff"
     id="path272"
     style="stroke-width:1.00006" />
  <path
     d="m 500.93523,610.02331 c 0,0 53.40321,-11.21067 143.00858,3.00019 l -35.10211,-25.76155 -63.86383,-13.07079 -45.1827,12.00073 z"
     opacity="0.1"
     id="path274"
     style="stroke-width:1.00006" />
  <path
     d="m 494.67486,622.14403 c 0,0 26.89161,-72.74436 165.00989,0.23003 l -49.57297,-31.90192 c 0,0 -118.75712,-32.81197 -132.47795,5.00029 z"
     fill="#ffffff"
     id="path276"
     style="stroke-width:1.00006" />
  <path
     d="m 494.67486,622.09404 c 0,0 26.89161,-77.77467 165.00989,1.40008 l -49.57297,-34.60207 c 0,0 -118.79712,-39.24235 -132.54795,1.8301 z"
     opacity="0.1"
     id="path278"
     style="stroke-width:1.00006" />
  <path
     d="m 494.67486,622.12403 c 0,0 26.89161,-78.92472 165.00989,0.25003 l -49.57297,-34.60208 c 0,0 -118.75712,-38.12228 -132.47795,3.00018 z"
     fill="#ffffff"
     id="path280"
     style="stroke-width:1.00006" />
  <path
     d="m 494.67486,622.14403 c 0,0 26.89161,-87.71525 165.00989,1.35009 l -49.61298,-38.93234 c 0,0 -118.75711,-40.00239 -132.47794,6.16037 z"
     opacity="0.1"
     id="path282"
     style="stroke-width:1.00006" />
  <path
     d="m 494.67486,622.09404 c 0,0 26.89161,-88.78532 165.00989,0.28002 l -49.61298,-38.93235 c 0,0 -118.75711,-40.00239 -132.47794,6.16038 z"
     fill="#ffffff"
     id="path284"
     style="stroke-width:1.00006" />
  <path
     d="m 909.03972,613.73354 c 0,0 -33.152,35.51213 -3.3102,52.76315 0,0 3.9002,4.70029 9.4705,2.24014 0,0 -1.8801,-1.67011 1.8902,-4.8903 a 22.36134,22.36134 0 0 0 3.5502,-3.90022 11.000659,11.000659 0 0 0 2.0601,-6.66041 v 0 c 0,0 4.3403,-14.09085 -9.4506,-32.38194 0,0 -1.2501,-6.12036 -2.3101,-6.7904 l -2.5202,8.5305 c 0,0 6.3304,1.61011 8.7106,6.43039 0,0 -8.3405,-6.5504 -9.1506,-5.18032 -0.16,0.28003 -1.1301,4.59028 -1.1301,4.59028 0,0 11.0007,2.84017 14.4409,10.40063 0,0 -8.8905,-9.13055 -14.8209,-8.77053 l -1.0801,6.5804 c 0,0 11.7708,2.44014 16.001,10.90065 0,0 -9.6206,-9.23055 -16.1609,-9.44057 l -0.1901,6.6104 c 0,0 11.4307,2.60016 14.9209,9.66058 0,0 -12.1907,-9.53057 -14.8609,-8.14049 0,0 0.1901,6.09037 1.0001,7.68046 0,0 8.1605,2.00012 9.8206,6.34039 0,0 -8.8205,-5.51034 -9.5806,-4.67029 0,0 2.3702,7.86047 5.6703,11.21067 0,0 -5.2403,-4.59027 -6.8804,-10.78064 0,0 -2.2201,3.87023 -1.6601,7.67046 0,0 -3.2702,-3.62021 1.1101,-9.58058 0,0 -1.6001,-6.20037 -1.2001,-7.18043 0,0 -5.1503,5.27032 -6.4703,10.0006 0,0 -1.0001,-5.92035 6.4603,-11.7107 v -6.6604 c 0,0 -7.1804,6.6104 -8.6605,10.70065 0,0 -0.1,-6.20038 8.8105,-12.37075 l 1.0001,-6.47039 c 0,0 -6.6204,5.22032 -9.2506,9.42058 0,0 1.1401,-5.78035 9.6006,-11.26069 l 1.1701,-4.24025 c 0,0 -4.7603,3.90023 -6.0004,5.14031 -1.24,1.24007 -1.7101,1.00005 -1.7101,1.00005 a 21.001258,21.001258 0 0 1 8.2005,-7.94046 c 0,0 3.0602,-8.62052 2.5102,-8.85053 z"
     fill="#6c63ff"
     opacity="0.1"
     id="path286"
     style="stroke-width:1.00006" />
  <path
     d="m 1057.2386,35.898894 c 0,0 -44.2927,20.001189 -23.4114,47.392849 0,0 1.7901,5.85034 7.8704,5.73033 0,0 -1.09,-2.27013 3.6302,-3.79022 a 21.911313,21.911313 0 0 0 4.7803,-2.23013 11.000659,11.000659 0 0 0 4.4703,-5.35033 v 0 c 0,0 9.4406,-11.32067 3.7702,-33.51201 0,0 1.2101,-6.13037 0.4901,-7.160429 l -5.6204,6.900419 c 0,0 5.2203,3.92024 5.5604,9.29055 0,0 -5.1604,-9.26055 -6.4404,-8.30049 -0.2601,0.19001 -2.8102,3.79023 -2.8102,3.79023 0,0 9.0005,6.8604 9.3106,15.1709 0,0 -4.6803,-11.86071 -10.3007,-13.82082 l -3.5302,5.66033 c 0,0 9.9206,6.79041 10.5807,16.23098 0,0 -5.3204,-12.22073 -11.2707,-14.94089 l -2.7302,6.00035 c 0,0 9.5506,6.81041 10.0006,14.67088 0,0 -7.5704,-13.50081 -10.5706,-13.2408 0,0 -2.1701,5.68035 -2.0001,7.47045 0,0 6.7404,5.00031 6.6204,9.64058 0,0 -6.0004,-8.48051 -7.0005,-8.00048 0,0 -0.85,8.16049 0.9101,12.53076 0,0 -3.0702,-6.26038 -2.1901,-12.60075 0,0 -3.5502,2.72016 -4.4903,6.44037 0,0 -1.6201,-4.61028 4.7203,-8.4205 0,0 0.91,-6.33037 1.6601,-7.08043 0,0 -6.7904,2.87018 -9.8106,6.69041 0,0 1.3501,-5.85036 10.4806,-8.3105 l 2.6002,-6.12036 c 0,0 -9.1706,3.32019 -12.1207,6.52038 0,0 2.3001,-5.76034 12.9007,-8.00048 l 3.4102,-5.58033 c 0,0 -8.1205,2.27014 -12.1707,5.1203 0,0 3.2902,-4.88028 13.2108,-6.68039 l 2.7102,-3.46021 c 0,0 -5.9004,1.7601 -7.5505,2.42015 -1.6501,0.66004 -2.0001,0.27 -2.0001,0.27 a 21.001258,21.001258 0 0 1 10.6906,-4.16024 c 0,0 6.0004,-6.780409 5.6404,-7.180429 z"
     fill="#6c63ff"
     opacity="0.1"
     id="path288"
     style="stroke-width:1.00006" />
  <path
     d="m 636.84338,48.279643 c 0,0 -66.54399,19.00113 -34.19205,47.28283 0,0 2.87018,6.000357 12.08073,6.000357 0,0 -1.7201,-2.320147 5.40032,-3.730227 a 42.292535,42.292535 0 0 0 7.18043,-2.12012 12.810768,12.810768 0 0 0 6.6204,-5.29033 v 0 c 0,0 14.00083,-11.20066 4.81028,-33.78201 0,0 1.67011,-6.16037 0.55003,-7.22044 l -8.3205,6.8204 c 0,0 8.00048,4.11026 8.67052,9.54059 0,0 -8.07047,-9.49057 -10.00058,-8.56052 -0.39004,0.19001 -4.16026,3.75022 -4.16026,3.75022 0,0 13.88084,7.18043 14.51086,15.59094 0,0 -7.40043,-12.11072 -16.00095,-14.24086 l -5.20031,5.62034 c 0,0 15.20091,7.13043 16.45098,16.69099 0,0 -8.3805,-12.49074 -17.46104,-15.40091 l -4.00024,6.00036 c 0,0 14.64087,7.14042 15.60093,15.1009 0,0 -11.83071,-13.85083 -16.37097,-13.68082 0,0 -3.1302,5.70034 -2.85018,7.51046 0,0 10.34062,5.28031 10.29061,9.92059 0,0 -9.34055,-8.74052 -10.88065,-8.2805 0,0 -1.06006,8.2305 1.72011,12.69076 0,0 -4.82029,-6.41039 -3.66022,-12.79076 0,0 -5.29032,2.65015 -6.6204,6.38037 0,0 -2.58015,-4.69027 6.92042,-8.37049 0,0 1.21007,-6.38039 2.32013,-7.12043 0,0 -10.20061,2.72016 -14.67087,6.50038 0,0 1.88011,-5.88034 15.64093,-8.12047 l 3.78023,-6.12037 c 0,0 -13.80083,3.12018 -18.18109,6.27036 0,0 3.3302,-5.76033 19.33116,-7.76045 l 5.00031,-5.55034 c 0,0 -12.24074,2.07012 -18.30111,4.8503 0,0 4.85029,-4.8503 19.8212,-6.40039 l 4.00023,-3.4202 c 0,0 -8.89053,1.62009 -11.37068,2.24013 -2.48014,0.62004 -3.00017,0.22001 -3.00017,0.22001 a 39.392361,39.392361 0 0 1 16.00095,-3.92024 c 0,0 9.12054,-6.68039 8.54051,-7.10041 z"
     fill="#6c63ff"
     opacity="0.1"
     id="path290"
     style="stroke-width:1.00006" />
  <path
     d="m 833.16515,789.74408 c 0,0 33.50201,-35.19211 3.83022,-52.73316 0,0 -3.86023,-4.74028 -9.45055,-2.34014 0,0 1.87011,1.6901 -1.93013,4.8803 a 22.571353,22.571353 0 0 0 -3.59021,3.86022 10.930655,10.930655 0 0 0 -2.12012,6.64041 v 0 c 0,0 -4.49028,14.05083 9.13053,32.47195 0,0 1.19008,6.13036 2.24015,6.8204 l 2.61015,-8.51051 c 0,0 -6.32038,-1.6701 -8.65052,-6.5104 0,0 8.2705,6.6204 9.09054,5.26032 0.17001,-0.28001 1.18007,-4.57028 1.18007,-4.57028 0,0 -11.00065,-3.00017 -14.34085,-10.54063 0,0 8.80053,9.22057 14.74088,8.91054 l 1.14006,-6.57039 c 0,0 -11.7407,-2.55016 -15.91094,-11.00067 0,0 9.53057,9.32056 16.07095,9.60058 l 0.25003,-6.62039 c 0,0 -11.41069,-2.76017 -14.8709,-9.86059 0,0 12.10073,9.66058 14.78088,8.2905 0,0 -0.12994,-6.08037 -1.00006,-7.68046 0,0 -8.14047,-2.14014 -9.76058,-6.44039 0,0 8.77053,5.60034 9.53057,4.76029 0,0 -2.29013,-7.88049 -5.56033,-11.26069 0,0 5.20031,4.64029 6.7804,10.84065 0,0 2.26015,-3.85022 1.7301,-7.65045 0,0 3.24021,3.66022 -1.20007,9.57056 0,0 1.5401,6.22038 1.13008,7.19045 0,0 5.20031,-5.22032 6.5604,-9.89059 0,0 1.00006,5.93034 -6.5704,11.64069 l -0.1,6.66039 c 0,0 7.24044,-6.54038 8.76053,-10.62063 0,0 0,6.21037 -8.93054,12.29074 l -1.00005,6.46038 c 0,0 6.6704,-5.1603 9.34055,-9.33056 0,0 -1.20007,5.76035 -9.71058,11.16068 l -1.21007,4.23025 c 0,0 4.80028,-3.85023 6.08036,-5.08031 1.28009,-1.23007 1.72011,-1.00006 1.72011,-1.00006 a 20.931254,20.931254 0 0 1 -8.2805,7.86047 c 0,0 -3.01018,8.57052 -2.51014,8.81053 z"
     fill="#6c63ff"
     opacity="0.1"
     id="path292"
     style="stroke-width:1.00006" />
  <path
     d="m 506.41557,1.5168434 c 0,0 5.71033,48.2428796 38.15228,36.6021896 0,0 6.11037,0.05 7.83047,-5.790349 0,0 -2.50016,0.36002 -2.52016,-4.60028 a 22.391342,22.391342 0 0 0 -0.69004,-5.23031 10.920655,10.920655 0 0 0 -3.75022,-5.870361 v 0 c 0,0 -7.96048,-12.4207396 -30.87184,-13.6408196 0,0 -5.48034,-3.00016998 -6.68041,-2.62014998 l 4.89029,7.43043998 c 0,0 5.31032,-3.80022 10.53064,-2.50014 0,0 -10.38063,2.14012 -9.8506,3.64021 0.1,0.31002 2.76017,3.8202396 2.76017,3.8202396 0,0 9.35056,-6.6003996 17.35104,-4.3502696 0,0 -12.71076,0.88005 -16.27097,5.6503396 l 4.27025,5.080301 c 0,0 9.46056,-7.420431 18.67113,-5.210301 0,0 -13.2608,1.40008 -17.65106,6.250361 l 4.98029,4.42027 c 0,0 9.36056,-7.06042 17.00102,-5.16031 0,0 -15.16091,3.1602 -15.82095,6.09037 0,0 4.77029,3.78022 6.53039,4.18024 0,0 6.84042,-4.91029 11.18067,-3.4102 0,0 -9.90059,3.1802 -9.75058,4.30027 0,0 7.53045,3.26019 12.22073,2.90017 0,0 -6.89041,1.00006 -12.67076,-1.7001 0,0 1.52009,4.19024 4.79028,6.220359 0,0 -4.88028,0.15001 -6.61039,-7.000409 0,0 -5.76034,-2.78017 -6.25037,-3.71023 0,0 0.70004,7.33044 3.4302,11.360689 0,0 -5.18031,-3.000189 -4.78028,-12.490749 l -5.00031,-4.33026 c 0,0 0.41003,9.75058 2.57015,13.53081 0,0 -4.80028,-3.93023 -3.76022,-14.72089 l -4.29025,-4.930291 c 0,0 -0.29002,8.420511 1.21007,13.140781 0,0 -3.67021,-4.60027 -2.39014,-14.600861 l -2.49014,-3.63023 c 0,0 -0.09,6.15037 0,7.930481 0.09,1.7801 -0.34003,1.95011 -0.34003,1.95011 A 21.001258,21.001258 0 0 1 511.56587,9.0872834 c 0,0 -4.65027,-7.81047 -5.1503,-7.57044 z"
     fill="#6c63ff"
     opacity="0.1"
     id="path294"
     style="stroke-width:1.00006" />
  <path
     d="m 748.8901,680.32752 c 0,0 -46.8228,-13.00077 -48.3229,21.4413 0,0 -2.36014,5.64033 2.39015,9.44055 0,0 0.61002,-2.44014 5.2103,-0.59003 a 22.401343,22.401343 0 0 0 5.10031,1.35009 10.930655,10.930655 0 0 0 6.86042,-1.26009 v 0 c 0,0 14.50086,-2.66016 24.34145,-23.34139 0,0 4.85028,-3.93024 5.0003,-5.19032 l -8.73052,1.7101 c 0,0 1.50009,6.36039 -1.68011,10.70064 0,0 2.00013,-10.42062 0.37002,-10.50061 -0.33002,0 -4.59027,1.11005 -4.59027,1.11005 0,0 2.56015,11.06067 -2.55015,17.61107 0,0 4.00024,-12.10074 0.93006,-17.20105 l -6.34039,2.09014 c 0,0 3.28021,11.56069 -2.26013,19.24115 0,0 3.74022,-12.79076 0.90005,-18.69112 l -5.94034,2.89017 c 0,0 3.00017,11.34069 -1.67011,17.70106 0,0 2.82016,-15.2209 0.35002,-16.95102 0,0 -5.30031,3.00019 -6.33037,4.46028 0,0 2.00011,8.19049 -1.08008,11.64069 0,0 0.80006,-10.37062 -0.29002,-10.65064 0,0 -5.88034,5.73034 -7.32044,10.21062 0,0 1.65011,-6.77041 6.38039,-11.08067 0,0 -4.46026,-0.18001 -7.57046,2.07013 0,0 1.7001,-4.57027 9.00054,-3.44022 0,0 4.76029,-4.29025 5.81036,-4.38025 0,0 -7.00043,-2.14013 -11.82071,-1.14007 0,0 4.78028,-3.64023 13.3708,0.32002 l 5.92035,-3.00018 c 0,0 -9.18055,-3.3102 -13.49081,-2.74017 0,0 5.45033,-3.00018 15.0009,2.09013 l 6.18038,-2.11013 c 0,0 -7.68046,-3.4502 -12.62077,-3.85023 0,0 5.65035,-1.6501 14.42087,3.3202 l 4.30027,-0.93006 c 0,0 -5.66035,-2.42014 -7.35046,-3.00017 -1.6901,-0.58004 -1.6801,-1.00006 -1.6801,-1.00006 a 21.001258,21.001258 0 0 1 10.83066,3.60021 c 0,0 9.00054,-1.40008 8.97054,-1.95012 z"
     fill="#6c63ff"
     opacity="0.1"
     id="path296"
     style="stroke-width:1.00006" />
</svg>
