<svg xmlns="http://www.w3.org/2000/svg" width="960" height="577.418" viewBox="0 0 960 577.418">
  <g id="undraw_sign_in_e6hj" transform="translate(0, 0)">
    <path id="Path_162" data-name="Path 162" d="M121.922,654.769l56.618-81.349-56.647,90.2-.033,9.255q-6.056-.051-11.99-.394c-.018-2.1,4.794-117.732,4.59-119.825.279-.079.436-10.936.547-11.411l-59.15-88.9L115.07,532.83l.177,2.379,3.513-89.838-50.845-92,51.248,76.212c.019-1.222,2.426-185.68,2.449-186.818.015.6,1.119,146.792,1.127,147.407l48.628-58.842-48.674,71.486-.249,80.4,45.126-77.752c-56.316,113.389-43.853,73.71-45.292,134.282L187.825,431.49l-65.6,123.861Z" transform="translate(-55.557, -112.958)" fill="#d0cde1"/>
    <path id="Path_163" data-name="Path 163" d="M988.093,665.813l23.594-33.9L988.081,669.5l-.014,3.857q-2.524-.021-5-.164c-.008-.876,2-49.062,1.913-49.934.116-.033.182-4.557.228-4.755l-24.646-37.045L985.241,615l.074.991,1.464-37.438L965.59,540.215l21.356,31.76c.008-.509,1.011-77.377,1.021-77.852.006.252.466,61.172.47,61.428L1008.7,531.03l-20.286,29.79-.1,33.506,18.805-32.4c-23.469,47.252-18.275,30.717-18.874,55.958l27.316-45.116-27.339,51.616Z" transform="translate(-55.557, -112.958)" fill="#d0cde1"/>
    <ellipse id="Ellipse_9" data-name="Ellipse 9" cx="478.431" cy="18.744" rx="478.431" ry="18.744" transform="translate(0, 539.929)" fill="#d0cde1"/>
    <rect id="Rectangle_111" data-name="Rectangle 111" width="546.268" height="325.681" transform="translate(164.237, 221.391)" fill="#3f3d56"/>
    <path id="Path_164" data-name="Path 164" d="M354.987,334.349a130.635,130.635,0,0,1-130.6,128.507c-1.535,0-3.062-.027-4.588-.08V334.349Z" transform="translate(-55.557, -112.958)" fill="#6c63ff"/>
    <path id="Path_165" data-name="Path 165" d="M519.65,660.03H467.694a27.678,27.678,0,0,1,51.955,0Z" transform="translate(-55.557, -112.958)" fill="#6c63ff"/>
    <path id="Path_166" data-name="Path 166" d="M766.062,491.57v109.7a54.915,54.915,0,0,1,0-109.7Z" transform="translate(-55.557, -112.958)" fill="#6c63ff"/>
    <rect id="Rectangle_112" data-name="Rectangle 112" width="376.802" height="32.189" rx="16.095" transform="translate(249.443, 339.735)" fill="#fff"/>
    <rect id="Rectangle_113" data-name="Rectangle 113" width="376.802" height="32.189" rx="16.095" transform="translate(249.443, 403.166)" fill="#fff"/>
    <rect id="Rectangle_114" data-name="Rectangle 114" width="132.108" height="32.189" rx="16.095" transform="translate(494.137, 466.597)" fill="#fff"/>
    <path id="Path_167" data-name="Path 167" d="M852.69,213.035s15.021,5.842,15.856,25.035-4.173,72.6-4.173,72.6,18.359,26.7,4.173,34.215-15.856-30.042-15.856-30.042L836,235.567S846.013,212.2,852.69,213.035Z" transform="translate(-55.557, -112.958)" fill="#a0616a"/>
    <path id="Path_168" data-name="Path 168" d="M699.14,274.79s-35.884,23.366-37.553,5.007,10.848-90.128,10.848-90.128,1.669-30.877,19.194-23.366-5.007,33.381-5.007,33.381l2.5,58.416,16.69-.835Z" transform="translate(-55.557, -112.958)" fill="#a0616a"/>
    <path id="Path_169" data-name="Path 169" d="M756.721,296.487S646.565,255.6,652.407,303.163s34.215,107.652,34.215,107.652l10.014,15.856H717.5l-13.353-85.955s47.567,26.7,61.754,22.532c0,0,18.359,122.674,25.035,131.853s18.359,120.17,18.359,120.17l10.849,13.352h20.863V440.858s35.884-116.832,8.345-122.674S756.721,296.487,756.721,296.487Z" transform="translate(-55.557, -112.958)" fill="#2f2e41"/>
    <path id="Path_170" data-name="Path 170" d="M694.132,415.822s-5.007-9.18-13.352,0-28.373,20.028-28.373,20.028-43.395,10.014-8.345,18.359,39.222,0,39.222,0,5.842,1.669,10.849,3.338,37.553-4.172,37.553-9.18-11.049-34.931-15.539-30.4S694.132,415.822,694.132,415.822Z" transform="translate(-55.557, -112.958)" fill="#2f2e41"/>
    <path id="Path_171" data-name="Path 171" d="M821.743,620.363s-12.3-10.133-15.2-7.238-18.095,22.438-18.095,22.438-40.532,31.123-3.619,36.19,34.742-8.686,34.742-8.686h11.581c1.448,0,20.99-8.686,20.266-12.3s-9.409-33.129-12.3-31.04S821.743,620.363,821.743,620.363Z" transform="translate(-55.557, -112.958)" fill="#2f2e41"/>
    <circle id="Ellipse_10" data-name="Ellipse 10" cx="28.373" cy="28.373" r="28.373" transform="translate(626.058, 11.619)" fill="#a0616a"/>
    <path id="Path_172" data-name="Path 172" d="M730.016,149.612s21.7,18.359,36.719,18.359-21.7,34.215-21.7,34.215l-32.546-29.208Z" transform="translate(-55.557, -112.958)" fill="#a0616a"/>
    <path id="Path_173" data-name="Path 173" d="M738.361,202.187l-.65-6.575S754.217,166.3,759.224,163.8s8.345-2.5,8.345-2.5,16.69-17.525,35.05-8.345,61.754,67.6,61.754,67.6-30.877,2.5-26.7,26.7c0,0,30.877,79.279,22.532,80.113s-33.38-5.007-59.25,6.676-37.553,4.173-37.553,4.173l-13.352-43.395s-25.035-14.187-24.2-26.7l-36.3,16.273,3.338-30.877L715,228.057S710.823,224.719,738.361,202.187Z" transform="translate(-55.557, -112.958)" fill="#575a89"/>
    <path id="Path_174" data-name="Path 174" d="M683.888,156.018a10.476,10.476,0,0,1-4.12,2.806c-1.616.456-3.652-.1-4.3-1.654l1.2-1.561-3.6-2.235,1.567-1.839-2.9-3.146,2.286-1.814-4.353-3.113c5.642-9.207,11.744-18.529,20.652-24.632s21.355-8.272,30.48-2.5c4.738,3,8.088,7.754,10.772,12.676,5.4,9.9,10.154,19.548,10.857,30.8-3.39-3.3-8.34-5.162-11.73-8.463a25.407,25.407,0,0,0-5.06-4.142c-3.546-2-7.789-2.177-11.759-3.079a17.666,17.666,0,0,1-8.029-4.414c-3-2.559-3.127-1.569-6.16,1.311Q691.8,148.525,683.888,156.018Z" transform="translate(-55.557, -112.958)" fill="#2f2e41"/>
  </g>
</svg>
