<svg xmlns="http://www.w3.org/2000/svg" viewBox="0 0 801.3 262.89">
	<g id="Layer_2" data-name="Layer 2">
		<g id="Logo_black">
			<g id="Logo">
				<path d="M154,204.27V261a1.88,1.88,0,0,1-1.88,1.87H1.88A1.88,1.88,0,0,1,0,261V1.88A1.88,1.88,0,0,1,1.88,0H58.21a1.88,1.88,0,0,1,1.88,1.88V200.59A1.88,1.88,0,0,0,62,202.47h90.21A1.79,1.79,0,0,1,154,204.27Z"/>
				<path d="M280.43,215.26c13.93,0,25.91-5.19,33.15-12.48a1.81,1.81,0,0,1,2.21-.31l39.55,22.74a2,2,0,0,1,.58,2.82c-17.42,23-43.26,34.86-76.2,34.86-60.79,0-98.47-40.87-98.47-93.83s38.39-93.85,94.56-93.85c51.89,0,90.28,40.17,90.28,93.85a104.7,104.7,0,0,1-1.82,19.79,1.93,1.93,0,0,1-1.9,1.53H240.6a1.92,1.92,0,0,0-1.76,2.65C246.15,209.48,261.84,215.26,280.43,215.26Zm30.11-64.69a1.93,1.93,0,0,0,1.83-2.5c-6.26-18.78-21.59-26.34-36.92-26.34-19.31,0-32.49,9.73-38,26.34a1.93,1.93,0,0,0,1.83,2.5Z"/>
				<path d="M506,77v42.64a1.81,1.81,0,0,1-2,1.81c-23.12-2.16-54.29,20.42-54.29,56.53v83a1.88,1.88,0,0,1-1.88,1.87H395.25a1.88,1.88,0,0,1-1.88-1.87V77a1.88,1.88,0,0,1,1.88-1.88h52.58A1.88,1.88,0,0,1,449.71,77v31.55c7.3-24.48,31.32-33,54.41-33.41A1.91,1.91,0,0,1,506,77Z"/>
				<path d="M713.59,147.6V261a1.88,1.88,0,0,1-1.88,1.87H659.14a1.88,1.88,0,0,1-1.88-1.87V155.86c0-23.29-14.65-34.18-32.68-34.18-20.65,0-34.92,12-34.92,38.69V261a1.88,1.88,0,0,1-1.88,1.87H535.2a1.88,1.88,0,0,1-1.88-1.87V77a1.88,1.88,0,0,1,1.88-1.88h52.58A1.88,1.88,0,0,1,589.66,77V92.76c10.14-13.89,28.92-22.91,53.7-22.91C681.29,69.85,713.59,96.9,713.59,147.6Z"/>
				<path d="M740.87,232.68a30.22,30.22,0,1,1,30.22,30.21A30.41,30.41,0,0,1,740.87,232.68Z"/>
			</g>
		</g>
	</g>
</svg>